PathFileType	4	(X/Y/Z)	 D:\Google Drive\Share to the world\OpenSim\ScaleTool\TRC\Walk_Mkrs.trc
DataRate	CameraRate	NumFrames	NumMarkers	Units	OrigDataRate	OrigDataStartFrame	OrigNumFrames
100	100	8	34	m	100	68	542
Frame#	time	C7			T10			CLAV			STRN			LSHO			LELB			LWRA			LWRB			LFIN			RSHO			RELB			RWRA			RWRB			RFIN			LASI			RASI			LPSI			RPSI			LTHI			LKNE			LTIB			LANK			LHEE			LTOE			RTHI			RKNE			RTIB			RANK			RHEE			RTOE			RPINKY			LPINKY			INRKNE			INLKNE			
		X1	Y1	Z1	X2	Y2	Z2	X3	Y3	Z3	X4	Y4	Z4	X5	Y5	Z5	X6	Y6	Z6	X7	Y7	Z7	X8	Y8	Z8	X9	Y9	Z9	X10	Y10	Z10	X11	Y11	Z11	X12	Y12	Z12	X13	Y13	Z13	X14	Y14	Z14	X15	Y15	Z15	X16	Y16	Z16	X17	Y17	Z17	X18	Y18	Z18	X19	Y19	Z19	X20	Y20	Z20	X21	Y21	Z21	X22	Y22	Z22	X23	Y23	Z23	X24	Y24	Z24	X25	Y25	Z25	X26	Y26	Z26	X27	Y27	Z27	X28	Y28	Z28	X29	Y29	Z29	X30	Y30	Z30	X31	Y31	Z31	X32	Y32	Z32	X33	Y33	Z33	X34	Y34	Z34	

68	0.6700	-2.153190	1.504340	0.213310	-2.193840	1.256490	0.210880	-2.013500	1.398640	0.228380	-1.985240	1.245920	0.226230	-2.079220	1.468850	0.042710	-2.063100	1.154090	-0.035410	-1.961270	0.921790	0.015640	-2.009870	0.911110	-0.030290	-1.958930	0.845990	-0.029460	-2.105110	1.470170	0.392820	-2.135600	1.154340	0.495640	-2.023050	0.930420	0.463060	-2.064870	0.923190	0.506510	-2.025680	0.861250	0.505280	-2.002110	0.978370	0.102030	-2.024420	0.981000	0.368370	-2.162520	1.089350	0.169990	-2.168870	1.088810	0.256570	-2.082530	0.681350	0.050460	-2.123010	0.495170	0.067370	-2.155880	0.297250	0.049370	-2.145390	0.089800	0.087150	-2.194790	0.106990	0.126640	-1.994880	0.050740	0.138990	-2.107730	0.682730	0.388320	-2.122860	0.492770	0.366580	-2.148730	0.317450	0.374260	-2.139050	0.072100	0.322640	-2.192630	0.092800	0.277480	-1.984380	0.050470	0.301250	-2.037910	0.031990	0.356290	-2.041480	0.041520	0.054430	-2.116300	0.491590	0.264010	-2.137500	0.483460	0.170240	
69	0.6800	-2.153090	1.504350	0.213080	-2.193800	1.256500	0.210690	-2.013390	1.398630	0.228040	-1.985200	1.245910	0.225860	-2.079300	1.468820	0.042410	-2.063570	1.154040	-0.035700	-1.962140	0.921500	0.015130	-2.010820	0.910930	-0.030730	-1.960020	0.845720	-0.030010	-2.104860	1.470190	0.392550	-2.135270	1.154340	0.495410	-2.022630	0.930470	0.462680	-2.064540	0.923200	0.506160	-2.025330	0.861250	0.504880	-2.002150	0.978370	0.101770	-2.024340	0.981030	0.368100	-2.162530	1.089350	0.169790	-2.168830	1.088810	0.256360	-2.082590	0.681330	0.050280	-2.123070	0.495140	0.067230	-2.155920	0.297210	0.049280	-2.145400	0.089780	0.087130	-2.194800	0.106960	0.126620	-1.994880	0.050740	0.138980	-2.107660	0.682740	0.388140	-2.122820	0.492780	0.366440	-2.148700	0.317460	0.374180	-2.139050	0.072120	0.322660	-2.192650	0.092810	0.277500	-1.984390	0.050470	0.301250	-2.037910	0.032010	0.356300	-2.041480	0.041520	0.054420	-2.116330	0.491580	0.263890	-2.137530	0.483470	0.170120	
70	0.6900	-2.153000	1.504370	0.212850	-2.193740	1.256510	0.210490	-2.013290	1.398600	0.227680	-1.985150	1.245910	0.225490	-2.079370	1.468790	0.042100	-2.064040	1.153980	-0.035990	-1.963030	0.921210	0.014620	-2.011780	0.910750	-0.031190	-1.961140	0.845440	-0.030570	-2.104600	1.470210	0.392270	-2.134930	1.154340	0.495160	-2.022240	0.930500	0.462290	-2.064200	0.923220	0.505790	-2.024970	0.861260	0.504460	-2.002180	0.978370	0.101510	-2.024260	0.981050	0.367830	-2.162540	1.089350	0.169580	-2.168780	1.088810	0.256130	-2.082660	0.681300	0.050090	-2.123120	0.495120	0.067090	-2.155950	0.297180	0.049180	-2.145410	0.089760	0.087120	-2.194820	0.106940	0.126600	-1.994880	0.050750	0.138970	-2.107590	0.682750	0.387970	-2.122770	0.492790	0.366310	-2.148670	0.317480	0.374100	-2.139050	0.072140	0.322680	-2.192660	0.092810	0.277530	-1.984400	0.050480	0.301240	-2.037900	0.032040	0.356310	-2.041490	0.041510	0.054410	-2.116350	0.491570	0.263760	-2.137560	0.483480	0.169990	
71	0.7000	-2.152900	1.504380	0.212600	-2.193680	1.256520	0.210300	-2.013180	1.398580	0.227310	-1.985100	1.245900	0.225110	-2.079430	1.468770	0.041780	-2.064520	1.153920	-0.036300	-1.963930	0.920910	0.014090	-2.012760	0.910570	-0.031660	-1.962270	0.845150	-0.031140	-2.104330	1.470230	0.391980	-2.134570	1.154350	0.494900	-2.021870	0.930520	0.461870	-2.063840	0.923250	0.505400	-2.024580	0.861280	0.504030	-2.002210	0.978370	0.101250	-2.024190	0.981080	0.367560	-2.162550	1.089350	0.169360	-2.168730	1.088810	0.255900	-2.082720	0.681270	0.049890	-2.123170	0.495090	0.066940	-2.155970	0.297140	0.049080	-2.145420	0.089740	0.087100	-2.194830	0.106920	0.126580	-1.994890	0.050750	0.138960	-2.107510	0.682770	0.387790	-2.122720	0.492810	0.366170	-2.148640	0.317500	0.374020	-2.139060	0.072160	0.322700	-2.192670	0.092810	0.277550	-1.984410	0.050480	0.301230	-2.037900	0.032070	0.356320	-2.041500	0.041500	0.054400	-2.116370	0.491560	0.263640	-2.137590	0.483480	0.169860	
72	0.7100	-2.152800	1.504400	0.212340	-2.193610	1.256530	0.210090	-2.013070	1.398540	0.226940	-1.985040	1.245880	0.224740	-2.079490	1.468740	0.041450	-2.064990	1.153860	-0.036610	-1.964850	0.920610	0.013550	-2.013740	0.910400	-0.032140	-1.963420	0.844860	-0.031710	-2.104060	1.470260	0.391670	-2.134210	1.154360	0.494620	-2.021490	0.930540	0.461430	-2.063460	0.923280	0.505000	-2.024170	0.861300	0.503580	-2.002230	0.978360	0.100990	-2.024120	0.981090	0.367280	-2.162570	1.089350	0.169140	-2.168680	1.088800	0.255660	-2.082790	0.681240	0.049690	-2.123230	0.495070	0.066790	-2.156000	0.297110	0.048980	-2.145440	0.089720	0.087080	-2.194850	0.106900	0.126560	-1.994890	0.050750	0.138950	-2.107440	0.682790	0.387620	-2.122670	0.492830	0.366040	-2.148610	0.317510	0.373940	-2.139060	0.072180	0.322710	-2.192690	0.092820	0.277560	-1.984420	0.050490	0.301220	-2.037900	0.032100	0.356330	-2.041510	0.041490	0.054390	-2.116380	0.491560	0.263510	-2.137630	0.483490	0.169720	
73	0.7200	-2.152700	1.504420	0.212080	-2.193550	1.256540	0.209890	-2.012970	1.398510	0.226550	-1.984970	1.245860	0.224380	-2.079550	1.468710	0.041110	-2.065460	1.153810	-0.036930	-1.965770	0.920310	0.013010	-2.014740	0.910220	-0.032630	-1.964570	0.844560	-0.032300	-2.103790	1.470280	0.391360	-2.133840	1.154380	0.494340	-2.021110	0.930580	0.460970	-2.063060	0.923310	0.504590	-2.023740	0.861340	0.503120	-2.002240	0.978350	0.100710	-2.024050	0.981100	0.367010	-2.162580	1.089350	0.168910	-2.168620	1.088800	0.255420	-2.082850	0.681210	0.049490	-2.123280	0.495040	0.066630	-2.156020	0.297080	0.048870	-2.145450	0.089700	0.087060	-2.194860	0.106870	0.126540	-1.994900	0.050750	0.138950	-2.107360	0.682800	0.387440	-2.122620	0.492850	0.365900	-2.148580	0.317530	0.373850	-2.139070	0.072200	0.322720	-2.192700	0.092830	0.277580	-1.984430	0.050490	0.301210	-2.037910	0.032130	0.356340	-2.041520	0.041490	0.054390	-2.116390	0.491560	0.263380	-2.137670	0.483490	0.169570	
74	0.7300	-2.152600	1.504430	0.211800	-2.193480	1.256550	0.209680	-2.012860	1.398490	0.226160	-1.984890	1.245830	0.224010	-2.079590	1.468680	0.040760	-2.065940	1.153740	-0.037260	-1.966710	0.920000	0.012460	-2.015750	0.910050	-0.033130	-1.965730	0.844260	-0.032880	-2.103520	1.470310	0.391040	-2.133460	1.154400	0.494040	-2.020700	0.930630	0.460500	-2.062620	0.923350	0.504170	-2.023280	0.861380	0.502650	-2.002250	0.978330	0.100430	-2.023970	0.981100	0.366730	-2.162580	1.089350	0.168680	-2.168570	1.088800	0.255180	-2.082910	0.681170	0.049280	-2.123340	0.495010	0.066480	-2.156040	0.297050	0.048770	-2.145460	0.089680	0.087040	-2.194880	0.106850	0.126510	-1.994910	0.050760	0.138940	-2.107270	0.682820	0.387270	-2.122560	0.492880	0.365760	-2.148550	0.317550	0.373770	-2.139080	0.072220	0.322730	-2.192710	0.092840	0.277590	-1.984440	0.050500	0.301200	-2.037910	0.032160	0.356340	-2.041520	0.041480	0.054380	-2.116400	0.491550	0.263250	-2.137720	0.483500	0.169420	
75	0.7400	-2.152480	1.504430	0.211510	-2.193410	1.256570	0.209470	-2.012750	1.398470	0.225770	-1.984800	1.245810	0.223640	-2.079620	1.468640	0.040410	-2.066410	1.153680	-0.037600	-1.967650	0.919690	0.011900	-2.016760	0.909880	-0.033630	-1.966890	0.843950	-0.033480	-2.103260	1.470340	0.390710	-2.133070	1.154430	0.493730	-2.020260	0.930690	0.460020	-2.062160	0.923390	0.503740	-2.022800	0.861430	0.502170	-2.002240	0.978310	0.100140	-2.023890	0.981090	0.366440	-2.162560	1.089350	0.168440	-2.168510	1.088790	0.254940	-2.082970	0.681130	0.049080	-2.123390	0.494980	0.066320	-2.156050	0.297020	0.048660	-2.145470	0.089660	0.087020	-2.194900	0.106830	0.126490	-1.994920	0.050760	0.138930	-2.107190	0.682850	0.387090	-2.122510	0.492900	0.365630	-2.148520	0.317560	0.373690	-2.139090	0.072240	0.322740	-2.192730	0.092840	0.277600	-1.984460	0.050510	0.301190	-2.037910	0.032190	0.356350	-2.041530	0.041470	0.054370	-2.116400	0.491540	0.263110	-2.137780	0.483500	0.169260	
